# xmcd
# 
# Track frame offsets:
#     150
#     12672
#     26562
#     37057
#     50332
#     63159
#     76965
#     91530
#     103529
#     117602
#     129535
#     143711
#     156907
#     170089
#     184321
#     197052
#     209177
#     222137
#     236108
#     252093
# 
# Disc length: 3571
# 
# Revision: 2
# Processed by: cddbd v1.5.2PL0 Copyright (c) Steve Scherf et al.
# Submitted via: fre:ac v1.0.17
# 
DISCID=250df114
DTITLE=Various Artist - Blues Tunes [CD 2]
DYEAR=1965
DGENRE=Blues
TTITLE0=B.B. King - Everyday I Have The Blues
TTITLE1=Billy Holiday - Strange Fruit
TTITLE2=Fats Domino - Whats' The Matter Baby
TTITLE3=Helen Humes - Loud Talkin'  Woman
TTITLE4=Faber Smith - East St. Louis Blues
TTITLE5=Lena Horne - St. Louis Blues
TTITLE6=Lightning Slim - Ethel Mea
TTITLE7=Miss Rhapsody - Blues In My Heart
TTITLE8=Bonita Cole and Bill Forte's Orch. - Life Is Like That
TTITLE9=Hot Shot Love - Wolf Call Boogie
TTITLE10=Leroy Carr - Midnight Hour Blues
TTITLE11=Jay Hawkins and Tiny Grimes - Why Did You Waste My Time
TTITLE12=Bertha 'Chippie' Hill - Pratt City Blues
TTITLE13=Frank Floyd - Rockin'  Chair Daddy
TTITLE14=Robert Johnson - Kind Hearted Woman Blues
TTITLE15=Blind Lemon Jefferson - Balky Mule Blues
TTITLE16=Eliza Brown - Peddlin' Man
TTITLE17=Barbeque Bob - It won't Be Long Now
TTITLE18=Little Walter - Blues With A Feeling
TTITLE19=Billy Eckstine - Mister, You've Gone and Got The Blues
EXTD=
EXTT0=
EXTT1=
EXTT2=
EXTT3=
EXTT4=
EXTT5=
EXTT6=
EXTT7=
EXTT8=
EXTT9=
EXTT10=
EXTT11=
EXTT12=
EXTT13=
EXTT14=
EXTT15=
EXTT16=
EXTT17=
EXTT18=
EXTT19=
PLAYORDER=
